<svg width="66" height="60" viewBox="0 0 244 221" fill="none" xmlns="http://www.w3.org/2000/svg">
<line x1="60" y1="144.5" x2="183.004" y2="144.5" stroke="#AAA69D" stroke-width="3"/>
<line x1="60" y1="96.5" x2="183.004" y2="96.5" stroke="#AAA69D" stroke-width="3"/>
<line x1="60" y1="72.5" x2="183.004" y2="72.5" stroke="#AAA69D" stroke-width="3"/>
<line x1="60" y1="120.5" x2="183.004" y2="120.5" stroke="#AAA69D" stroke-width="3"/>
<line x1="60" y1="168.5" x2="183.004" y2="168.5" stroke="#AAA69D" stroke-width="3"/>
<!-- <rect x="3" y="3" width="56.9219" height="26" rx="2" fill="black"/>
<rect x="3.5" y="3.5" width="55.9219" height="25" rx="1.5" stroke="black" stroke-opacity="0.14902"/> -->
<!-- <path d="M12.3438 13C12.2969 12.6042 12.1068 12.2969 11.7734 12.0781C11.4401 11.8594 11.0313 11.75 10.5469 11.75C10.1927 11.75 9.88281 11.8073 9.61719 11.9219C9.35417 12.0365 9.14844 12.194 9 12.3945C8.85417 12.5951 8.78125 12.8229 8.78125 13.0781C8.78125 13.2917 8.83203 13.4753 8.93359 13.6289C9.03776 13.7799 9.17057 13.9062 9.33203 14.0078C9.49349 14.1068 9.66276 14.1888 9.83984 14.2539C10.0169 14.3164 10.1797 14.3672 10.3281 14.4062L11.1406 14.625C11.349 14.6797 11.5807 14.7552 11.8359 14.8516C12.0938 14.9479 12.3398 15.0794 12.5742 15.2461C12.8112 15.4102 13.0065 15.6211 13.1602 15.8789C13.3138 16.1367 13.3906 16.4531 13.3906 16.8281C13.3906 17.2604 13.2773 17.651 13.0508 18C12.8268 18.349 12.4987 18.6263 12.0664 18.832C11.6367 19.0378 11.1146 19.1406 10.5 19.1406C9.92708 19.1406 9.43099 19.0482 9.01172 18.8633C8.59505 18.6784 8.26693 18.4206 8.02734 18.0898C7.79036 17.7591 7.65625 17.375 7.625 16.9375H8.625C8.65104 17.2396 8.7526 17.4896 8.92969 17.6875C9.10938 17.8828 9.33594 18.0286 9.60938 18.125C9.88542 18.2187 10.1823 18.2656 10.5 18.2656C10.8698 18.2656 11.2018 18.2057 11.4961 18.0859C11.7904 17.9635 12.0234 17.7943 12.1953 17.5781C12.3672 17.3594 12.4531 17.1042 12.4531 16.8125C12.4531 16.5469 12.3789 16.3307 12.2305 16.1641C12.082 15.9974 11.8867 15.862 11.6445 15.7578C11.4023 15.6536 11.1406 15.5625 10.8594 15.4844L9.875 15.2031C9.25 15.0234 8.75521 14.7669 8.39062 14.4336C8.02604 14.1003 7.84375 13.6641 7.84375 13.125C7.84375 12.6771 7.96484 12.2865 8.20703 11.9531C8.45182 11.6172 8.77995 11.3568 9.19141 11.1719C9.60547 10.9844 10.0677 10.8906 10.5781 10.8906C11.0938 10.8906 11.5521 10.9831 11.9531 11.168C12.3542 11.3503 12.6719 11.6003 12.9062 11.918C13.1432 12.2357 13.2682 12.5964 13.2813 13H12.3438ZM17.374 19.125C16.7959 19.125 16.2972 18.9974 15.8779 18.7422C15.4613 18.4844 15.1396 18.125 14.9131 17.6641C14.6891 17.2005 14.5771 16.6615 14.5771 16.0469C14.5771 15.4323 14.6891 14.8906 14.9131 14.4219C15.1396 13.9505 15.4548 13.5833 15.8584 13.3203C16.2646 13.0547 16.7386 12.9219 17.2803 12.9219C17.5928 12.9219 17.9014 12.974 18.2061 13.0781C18.5107 13.1823 18.7881 13.3516 19.0381 13.5859C19.2881 13.8177 19.4873 14.125 19.6357 14.5078C19.7842 14.8906 19.8584 15.362 19.8584 15.9219V16.3125H15.2334V15.5156H18.9209C18.9209 15.1771 18.8532 14.875 18.7178 14.6094C18.585 14.3437 18.3949 14.1341 18.1475 13.9805C17.9027 13.8268 17.6136 13.75 17.2803 13.75C16.9131 13.75 16.5954 13.8411 16.3271 14.0234C16.0615 14.2031 15.8571 14.4375 15.7139 14.7266C15.5706 15.0156 15.499 15.3255 15.499 15.6562V16.1875C15.499 16.6406 15.5771 17.0247 15.7334 17.3398C15.8923 17.6523 16.1123 17.8906 16.3936 18.0547C16.6748 18.2161 17.0016 18.2969 17.374 18.2969C17.6162 18.2969 17.835 18.263 18.0303 18.1953C18.2282 18.125 18.3988 18.0208 18.542 17.8828C18.6852 17.7422 18.7959 17.5677 18.874 17.3594L19.7646 17.6094C19.6709 17.9115 19.5133 18.1771 19.292 18.4062C19.0706 18.6328 18.7972 18.8099 18.4717 18.9375C18.1462 19.0625 17.7803 19.125 17.374 19.125ZM23.6982 19.125C23.1357 19.125 22.6514 18.9922 22.2451 18.7266C21.8389 18.4609 21.5264 18.0951 21.3076 17.6289C21.0889 17.1628 20.9795 16.6302 20.9795 16.0312C20.9795 15.4219 21.0915 14.8841 21.3154 14.418C21.542 13.9492 21.8571 13.5833 22.2607 13.3203C22.667 13.0547 23.141 12.9219 23.6826 12.9219C24.1045 12.9219 24.4847 13 24.8232 13.1562C25.1618 13.3125 25.4391 13.5312 25.6553 13.8125C25.8714 14.0937 26.0055 14.4219 26.0576 14.7969H25.1357C25.0654 14.5234 24.9092 14.2812 24.667 14.0703C24.4274 13.8568 24.1045 13.75 23.6982 13.75C23.3389 13.75 23.0238 13.8437 22.7529 14.0312C22.4847 14.2161 22.2751 14.4779 22.124 14.8164C21.9756 15.1523 21.9014 15.5469 21.9014 16C21.9014 16.4635 21.9743 16.8672 22.1201 17.2109C22.2686 17.5547 22.4769 17.8216 22.7451 18.0117C23.016 18.2018 23.3337 18.2969 23.6982 18.2969C23.9378 18.2969 24.1553 18.2552 24.3506 18.1719C24.5459 18.0885 24.7113 17.9688 24.8467 17.8125C24.9821 17.6562 25.0785 17.4687 25.1357 17.25H26.0576C26.0055 17.6042 25.8766 17.9232 25.6709 18.207C25.4678 18.4883 25.1982 18.7122 24.8623 18.8789C24.529 19.043 24.141 19.125 23.6982 19.125ZM30.0146 13V13.7812H26.9053V13H30.0146ZM27.8115 11.5625H28.7334V17.2812C28.7334 17.5417 28.7712 17.737 28.8467 17.8672C28.9248 17.9948 29.0238 18.0807 29.1436 18.125C29.266 18.1667 29.3949 18.1875 29.5303 18.1875C29.6318 18.1875 29.7152 18.1823 29.7803 18.1719C29.8454 18.1589 29.8975 18.1484 29.9365 18.1406L30.124 18.9687C30.0615 18.9922 29.9743 19.0156 29.8623 19.0391C29.7503 19.0651 29.6084 19.0781 29.4365 19.0781C29.1761 19.0781 28.9209 19.0221 28.6709 18.9102C28.4235 18.7982 28.2178 18.6276 28.0537 18.3984C27.8923 18.1693 27.8115 17.8802 27.8115 17.5312V11.5625ZM31.4014 19V13H32.3232V19H31.4014ZM31.8701 12C31.6904 12 31.5355 11.9388 31.4053 11.8164C31.2777 11.694 31.2139 11.5469 31.2139 11.375C31.2139 11.2031 31.2777 11.056 31.4053 10.9336C31.5355 10.8112 31.6904 10.75 31.8701 10.75C32.0498 10.75 32.2035 10.8112 32.3311 10.9336C32.4613 11.056 32.5264 11.2031 32.5264 11.375C32.5264 11.5469 32.4613 11.694 32.3311 11.8164C32.2035 11.9388 32.0498 12 31.8701 12ZM36.4492 19.125C35.9076 19.125 35.4323 18.9961 35.0234 18.7383C34.6172 18.4805 34.2995 18.1198 34.0703 17.6562C33.8438 17.1927 33.7305 16.651 33.7305 16.0312C33.7305 15.4062 33.8438 14.8607 34.0703 14.3945C34.2995 13.9284 34.6172 13.5664 35.0234 13.3086C35.4323 13.0508 35.9076 12.9219 36.4492 12.9219C36.9909 12.9219 37.4648 13.0508 37.8711 13.3086C38.2799 13.5664 38.5977 13.9284 38.8242 14.3945C39.0534 14.8607 39.168 15.4062 39.168 16.0312C39.168 16.651 39.0534 17.1927 38.8242 17.6562C38.5977 18.1198 38.2799 18.4805 37.8711 18.7383C37.4648 18.9961 36.9909 19.125 36.4492 19.125ZM36.4492 18.2969C36.8607 18.2969 37.1992 18.1914 37.4648 17.9805C37.7305 17.7695 37.9271 17.4922 38.0547 17.1484C38.1823 16.8047 38.2461 16.4323 38.2461 16.0312C38.2461 15.6302 38.1823 15.2565 38.0547 14.9102C37.9271 14.5638 37.7305 14.2839 37.4648 14.0703C37.1992 13.8568 36.8607 13.75 36.4492 13.75C36.0378 13.75 35.6992 13.8568 35.4336 14.0703C35.168 14.2839 34.9714 14.5638 34.8438 14.9102C34.7161 15.2565 34.6523 15.6302 34.6523 16.0312C34.6523 16.4323 34.7161 16.8047 34.8438 17.1484C34.9714 17.4922 35.168 17.7695 35.4336 17.9805C35.6992 18.1914 36.0378 18.2969 36.4492 18.2969ZM41.4971 15.3906V19H40.5752V13H41.4658V13.9375H41.5439C41.6846 13.6328 41.8981 13.388 42.1846 13.2031C42.471 13.0156 42.8408 12.9219 43.2939 12.9219C43.7002 12.9219 44.0557 13.0052 44.3604 13.1719C44.665 13.3359 44.902 13.5859 45.0713 13.9219C45.2406 14.2552 45.3252 14.6771 45.3252 15.1875V19H44.4033V15.25C44.4033 14.7786 44.2809 14.4115 44.0361 14.1484C43.7913 13.8828 43.4554 13.75 43.0283 13.75C42.734 13.75 42.471 13.8138 42.2393 13.9414C42.0101 14.069 41.8291 14.2552 41.6963 14.5C41.5635 14.7448 41.4971 15.0417 41.4971 15.3906ZM50.0879 19V18.2969L52.7285 15.4062C53.0384 15.0677 53.2936 14.7734 53.4941 14.5234C53.6947 14.2708 53.8431 14.0339 53.9395 13.8125C54.0384 13.5885 54.0879 13.3542 54.0879 13.1094C54.0879 12.8281 54.0202 12.5846 53.8848 12.3789C53.752 12.1732 53.5697 12.0143 53.3379 11.9023C53.1061 11.7904 52.8457 11.7344 52.5566 11.7344C52.2493 11.7344 51.9811 11.7982 51.752 11.9258C51.5254 12.0508 51.3496 12.2266 51.2246 12.4531C51.1022 12.6797 51.041 12.9453 51.041 13.25H50.1191C50.1191 12.7812 50.2272 12.3698 50.4434 12.0156C50.6595 11.6615 50.9538 11.3854 51.3262 11.1875C51.7012 10.9896 52.1217 10.8906 52.5879 10.8906C53.0566 10.8906 53.472 10.9896 53.834 11.1875C54.196 11.3854 54.4798 11.6523 54.6855 11.9883C54.8913 12.3242 54.9941 12.6979 54.9941 13.1094C54.9941 13.4036 54.9408 13.6914 54.834 13.9727C54.7298 14.2513 54.5475 14.5625 54.2871 14.9062C54.0293 15.2474 53.6712 15.6641 53.2129 16.1562L51.416 18.0781V18.1406H55.1348V19H50.0879Z" fill="white"/> -->
</svg>
