<svg width="91" height="63" viewBox="0 0 91 63" fill="none" xmlns="http://www.w3.org/2000/svg">
<path d="M88.3502 10.2128C87.3217 6.38442 84.2932 3.35598 80.4077 2.32746C73.3794 0.498969 45.2664 0.498969 45.2664 0.498969C45.2664 0.498969 17.6677 0.384689 10.6394 2.21318C6.75388 3.2417 3.03976 6.38442 2.01123 10.2128C0.125605 17.1839 0.297026 31.6404 0.297026 31.6404C0.297026 31.6404 0.125605 46.0969 2.01123 53.068C3.03976 56.8964 6.81102 60.0391 10.6394 61.0677C17.6677 62.9533 45.2664 62.7819 45.2664 62.7819C45.2664 62.7819 72.8652 62.8962 79.8934 61.0677C83.779 60.0391 87.3788 56.8964 88.4073 53.068C90.293 46.1541 90.293 31.6404 90.293 31.6404C90.293 31.6404 90.2358 17.1839 88.3502 10.2128Z" fill="#FF0000"/>
<path d="M36.6396 45.4684L59.0958 31.6405L36.6396 17.8125V45.4684Z" fill="white"/>
</svg>
